<svg xmlns="http://www.w3.org/2000/svg" xmlns:xlink="http://www.w3.org/1999/xlink" xmlns:serif="http://www.serif.com/" width="18" height="18" viewBox="0 0 24 24" version="1.1" xml:space="preserve" style="fill-rule:evenodd;clip-rule:evenodd;stroke-linejoin:round;stroke-miterlimit:2;"> <path d="M22,8l0,8c0,3.311 -2.689,6 -6,6l-8,0c-3.311,0 -6,-2.689 -6,-6l0,-8c0,-3.311 2.689,-6 6,-6l8,0c3.311,0 6,2.689 6,6Zm-2,0c0,-2.208 -1.792,-4 -4,-4l-8,0c-2.208,0 -4,1.792 -4,4l0,8c0,2.208 1.792,4 4,4l8,0c2.208,0 4,-1.792 4,-4l0,-8Z" style="fill:#de00a6;"/> <g> <path d="M13.624,17.485c-0.376,0.404 -1.009,0.427 -1.413,0.052c-0.404,-0.376 -0.427,-1.01 -0.051,-1.414l3.834,-4.123l-3.538,-3.804l-5.149,-0c-0.552,-0 -1,-0.448 -1,-1c-0,-0.552 0.448,-1 1,-1l5.585,-0c0.278,-0 0.543,0.115 0.732,0.319l4.468,4.804c0.357,0.384 0.357,0.978 0,1.362l-4.468,4.804Z" fill="currentColor"/> <path d="M10.098,15.804c0.552,0 1,0.448 1,1c0,0.552 -0.448,1 -1,1l-2.791,0c-0.398,0 -0.758,-0.236 -0.917,-0.6c-0.159,-0.365 -0.086,-0.789 0.185,-1.081l3.848,-4.138l-1.17,-1.312c-0.367,-0.412 -0.33,-1.045 0.082,-1.412c0.412,-0.367 1.045,-0.331 1.412,0.081l1.775,1.993c0.343,0.385 0.336,0.968 -0.015,1.346l-2.905,3.123l0.496,0Z" fill="currentColor"/></g></svg>